<svg id="Layer_1" data-name="Layer 1" xmlns="http://www.w3.org/2000/svg" viewBox="0 0 1080 1080"><defs><style>.cls-1{fill:#ff931e;}.cls-2{fill:#fc427b;}.cls-3{fill:#26281e;}.cls-4{fill:#de3163;}</style></defs><title>Artboard 1</title><path class="cls-1" d="M383.48,353.44c-1.5,1.38-2.34,1.87-2.79,2.6-20.68,34-29.44,70.75-17.14,109.19,10.69,33.4,24,66.1,38.34,98.16,36.48,81.77,54.52,166.69,47.81,256.38-.76,10.13-1.61,20.25-2.64,33.21,6.28-7,11-11.81,15.14-17.08C483.63,808.39,492,776.33,492,742.3c.06-67.18-18.65-129.6-50.63-188.34-10.28-18.87-21.18-37.47-30-57C390.9,451.88,378.15,405,383.48,353.44ZM722.09,477.22c-21.11-4.59-39.63-8.31-58-12.66-60.84-14.38-120.12-33-174-65.73-32.88-19.95-62.18-44.2-82.26-77.44C391,293.55,383.06,263,387.73,230.14c1.73-12.18,5.52-23.79,15.86-31.77,8.14-6.27,16.79-5.33,22.88,2.86,2.9,3.9,5.83,8.64,6.37,13.27a402.32,402.32,0,0,1,2.59,40.76c.11,7.08-1.59,14.22-2.75,21.28-1.09,6.69-2.54,13.32-3.83,20,16-23,23.15-48.65,23.34-75.73.07-10.36-3.34-21.74-8.33-30.94-8.72-16.1-26.23-19.38-41.83-9.82-16.38,10-27.54,24.35-32.55,42.86-9.73,36-3.09,69.92,15.1,101.63,15.62,27.21,36.08,50.75,59.06,72,54.46,50.45,118.79,84.94,186,114.77a6.24,6.24,0,0,0,2.44,0c6.06-19.71,6.06-19.74,26.69-20.47C679.74,490.15,700.12,486.55,722.09,477.22ZM396.62,370.42c-11.14,25.1-7.58,47.26,1.48,68.1,9.77,22.48,21.52,44.2,33.66,65.53,20.79,36.52,44,71.72,63.56,108.87,24.74,47,39.06,96.51,21,150.78,6.29-4.21,12.24-8.55,16.67-14.1,14.43-18.1,21.29-39.31,23.11-62.12,3.94-49.2-13.17-91.81-42.34-130.19-12.25-16.11-25.81-31.21-38.65-46.88C441.25,469,409,426.7,396.62,370.42Zm186,295.46C610.08,619.72,606,567,572.34,528.56c-10.83-12.36-23.12-23.56-35.53-34.38-40.55-35.37-87.31-63.95-119.92-109.11.26,8.07.39,16.56,4.1,23a290.41,290.41,0,0,0,26.83,39.13c19.56,23.81,40.6,46.41,60.24,70.16C543.9,560.64,575.33,606.37,582.58,665.88Zm-50-515c-9.46-.85-18.21-1.06-26.74-2.52-21.83-3.74-34.23-16.8-36.22-38.87-.8-8.86.29-18,1.22-26.91C473,62.08,455.13,46.34,436,52.26A47.07,47.07,0,0,0,404,104.91C413.82,160.81,486.89,187.27,532.61,150.91ZM512.88,373.65c28-7.18,51.42-18.58,56.22-53-36.09,31-75.08,44.17-121.32,29,32,44.14,129.55,73.24,183.35,55.47a24,24,0,0,0-1.23-2.43c-7.93-11.91-7.56-13.1,4.72-19.17,13.44-6.64,25.64-15,37.16-28.63C618.37,371.67,567,385,512.88,373.65Z"/><path class="cls-2" d="M383.48,353.44C378.15,405,390.9,451.88,411.35,497c8.86,19.53,19.76,38.13,30,57,32,58.74,50.69,121.16,50.63,188.34,0,34-8.39,66.09-29.82,93.6-4.1,5.27-8.86,10-15.14,17.08,1-13,1.88-23.08,2.64-33.21,6.71-89.69-11.33-174.61-47.81-256.38-14.3-32.06-27.65-64.76-38.34-98.16C351.25,426.79,360,390.09,380.69,356,381.14,355.31,382,354.82,383.48,353.44Z"/><path class="cls-2" d="M722.09,477.22c-22,9.33-42.35,12.93-63.34,13.68-20.63.73-20.63.76-26.69,20.47a6.24,6.24,0,0,1-2.44,0C562.43,481.5,498.1,447,443.64,396.56c-23-21.29-43.44-44.83-59.06-72-18.19-31.71-24.83-65.66-15.1-101.63,5-18.51,16.17-32.82,32.55-42.86,15.6-9.56,33.11-6.28,41.83,9.82,5,9.2,8.4,20.58,8.33,30.94-.19,27.08-7.35,52.75-23.34,75.73,1.29-6.66,2.74-13.29,3.83-20,1.16-7.06,2.86-14.2,2.75-21.28a402.32,402.32,0,0,0-2.59-40.76c-.54-4.63-3.47-9.37-6.37-13.27-6.09-8.19-14.74-9.13-22.88-2.86-10.34,8-14.13,19.59-15.86,31.77C383.06,263,391,293.55,407.8,321.39c20.08,33.24,49.38,57.49,82.26,77.44,53.9,32.7,113.18,51.35,174,65.73C682.46,468.91,701,472.63,722.09,477.22Z"/><path class="cls-2" d="M396.62,370.42c12.37,56.28,44.63,98.62,78.53,140,12.84,15.67,26.4,30.77,38.65,46.88,29.17,38.38,46.28,81,42.34,130.19-1.82,22.81-8.68,44-23.11,62.12-4.43,5.55-10.38,9.89-16.67,14.1,18-54.27,3.7-103.75-21-150.78-19.54-37.15-42.77-72.35-63.56-108.87-12.14-21.33-23.89-43.05-33.66-65.53C389,417.68,385.48,395.52,396.62,370.42Z"/><path class="cls-2" d="M582.58,665.88c-7.25-59.51-38.68-105.24-74.52-148.54-19.64-23.75-40.68-46.35-60.24-70.16A290.41,290.41,0,0,1,421,408.05c-3.71-6.42-3.84-14.91-4.1-23,32.61,45.16,79.37,73.74,119.92,109.11,12.41,10.82,24.7,22,35.53,34.38C606,567,610.08,619.72,582.58,665.88Z"/><path class="cls-3" d="M532.61,150.91c-45.72,36.36-118.79,9.9-128.66-46A47.07,47.07,0,0,1,436,52.26c19.12-5.92,37,9.82,34.86,30.35-.93,8.93-2,18-1.22,26.91,2,22.07,14.39,35.13,36.22,38.87C514.4,149.85,523.15,150.06,532.61,150.91Z"/><path class="cls-2" d="M512.88,373.65c54.14,11.34,105.49-2,158.9-18.73-11.52,13.67-23.72,22-37.16,28.63-12.28,6.07-12.65,7.26-4.72,19.17a24,24,0,0,1,1.23,2.43c-53.8,17.77-151.35-11.33-183.35-55.47,46.24,15.13,85.23,1.95,121.32-29C564.3,355.07,540.89,366.47,512.88,373.65Z"/><path class="cls-3" d="M208.37,1011.33l2.69-10.52q1.74-6.82,3.26-11a25.48,25.48,0,0,0-6.26,5.72,102.84,102.84,0,0,0-10.36,15.22l-1.27-16.69a6.7,6.7,0,0,1-.06-.9q0-.15.06-2.13a11.87,11.87,0,0,1-3.44.4,18.69,18.69,0,0,0-7,1.22,10.35,10.35,0,0,0-4.65,3.48,8,8,0,0,0-1.68,4.79,5.24,5.24,0,0,0,.9,3.07,1.83,1.83,0,0,0,1.5,1,1.14,1.14,0,0,0,.86-.37,1.3,1.3,0,0,0,.36-.94,2.41,2.41,0,0,0-.63-1.32,4.54,4.54,0,0,1-1.17-2.58,5.63,5.63,0,0,1,2.48-4.41,12.62,12.62,0,0,1,8.09-2.48,58.89,58.89,0,0,1-1.63,10.29,33.87,33.87,0,0,1-3,8.21,11.91,11.91,0,0,1-3.35,4.08,3.82,3.82,0,0,1-2.14.77,6.31,6.31,0,0,1-1.49-.23,7.55,7.55,0,0,0-1.52-.23,1.68,1.68,0,0,0-1.19.44,1.33,1.33,0,0,0-.47,1,1.45,1.45,0,0,0,.64,1.19,3,3,0,0,0,1.86.5,8.21,8.21,0,0,0,4-1.14,12.62,12.62,0,0,0,4-4,28.5,28.5,0,0,0,3.48-8,58,58,0,0,0,2.11-11.12l1.73,23.61,1.91-3.36q3.66-6.59,6.6-10.89,3.67-5.33,5.43-7.33a34,34,0,0,0-1.86,6l-1.7,6.7a76.78,76.78,0,0,1-2.52,8.49,9.05,9.05,0,0,1,2.58-.44,21.06,21.06,0,0,1,2.46.17,22.24,22.24,0,0,0,2.59.2,9.79,9.79,0,0,0,1.73-.2l.29-1.27a11.59,11.59,0,0,1-2.39.27,13.54,13.54,0,0,1-3.05-.4l.53-2.34C208,1012.77,208.22,1011.92,208.37,1011.33Z"/><path class="cls-3" d="M229.65,1014.69a2.69,2.69,0,0,1-1.12.46c-.36,0-.54-.23-.54-.68a20.14,20.14,0,0,1,.48-3q.87-4.32,1.86-7.63l1.65-5.54-1.45.3-.53.86a11.4,11.4,0,0,0-1.42-.09,10.84,10.84,0,0,0-4.56.83,14.07,14.07,0,0,0-4.39,3.42,19.48,19.48,0,0,0-3.32,5.18,13.23,13.23,0,0,0-1.24,5.17,5,5,0,0,0,.93,3.16,2.29,2.29,0,0,0,1.95.9,5.6,5.6,0,0,0,2.93-1,18.75,18.75,0,0,0,4.5-3.88l-.88,3a3.12,3.12,0,0,0-.17.9,1,1,0,0,0,.28.76,1.22,1.22,0,0,0,.86.27,4.59,4.59,0,0,0,1.62-.31,12.24,12.24,0,0,0,2.67-1.42c.47-.33,1.54-1.25,3.2-2.77l-.7-.85A14.76,14.76,0,0,1,229.65,1014.69Zm-3.66-5.92a9.76,9.76,0,0,1-2.54,4.7,5,5,0,0,1-3.25,1.63,1.56,1.56,0,0,1-1.31-.66,3.51,3.51,0,0,1-.51-2.14,13.57,13.57,0,0,1,1.27-5.63,9.82,9.82,0,0,1,2.72-3.9,5.67,5.67,0,0,1,3.45-1.08,10.31,10.31,0,0,1,2,.24Z"/><path class="cls-3" d="M258.16,1020a1.27,1.27,0,0,0-.92.4,1.24,1.24,0,0,0-.39.9,2.58,2.58,0,0,0,.24,1,2.48,2.48,0,0,1,.22.84c0,.32-.24.63-.7.95a3.16,3.16,0,0,1-1.78.47,4.82,4.82,0,0,1-3.38-1.45c-1-1-2.16-2.91-3.37-5.84a40.46,40.46,0,0,0-2.51-5.25,10.67,10.67,0,0,0-2-2.46,10.35,10.35,0,0,0-2.69-1.64c3.33-.09,5.81-.74,7.43-2a5.24,5.24,0,0,0,2.43-4.19,2.92,2.92,0,0,0-.76-2.07,2.4,2.4,0,0,0-1.85-.82,6.69,6.69,0,0,0-3.27,1,17.72,17.72,0,0,0-4.36,3.68l1.57-7a43.55,43.55,0,0,1,1.33-5.15,4,4,0,0,1,1.07-1.73,2,2,0,0,1,1.28-.48,5.5,5.5,0,0,1,1.12.13,19.25,19.25,0,0,0,2.91.33,1.89,1.89,0,0,0,1.27-.44,1.32,1.32,0,0,0,.5-1A1.37,1.37,0,0,0,251,987a2.65,2.65,0,0,0-1.69-.44,8.4,8.4,0,0,0-2.8.56,10.78,10.78,0,0,0-5.24,4,13.31,13.31,0,0,0-1.56,3.4q-.65,2.07-2.72,10.95l-2.88,12h3.27l2.13-9.47a9.73,9.73,0,0,1,1.86,2,23.43,23.43,0,0,1,2,3.88,70.8,70.8,0,0,0,3.29,7,12,12,0,0,0,3.53,3.86,7.8,7.8,0,0,0,4.27,1.21,5.65,5.65,0,0,0,3.78-1.23,3.63,3.63,0,0,0,1.44-2.81,1.85,1.85,0,0,0-.44-1.3A1.35,1.35,0,0,0,258.16,1020Zm-18.44-13,.3-1.55c2.83-3.06,4.94-4.59,6.31-4.59a1.39,1.39,0,0,1,1.08.51,1.91,1.91,0,0,1,.45,1.33,3.37,3.37,0,0,1-.78,2.15,5.2,5.2,0,0,1-2.59,1.58A15.16,15.16,0,0,1,239.72,1007Z"/><path class="cls-3" d="M263.59,998.9q-4.45,0-7.65,5.29a17.69,17.69,0,0,0-2.85,9.33,5.51,5.51,0,0,0,.82,3.38,2.84,2.84,0,0,0,2.38,1.05q3.82,0,9.2-5.11l-.72-1a27.82,27.82,0,0,1-4.23,2.76,4.65,4.65,0,0,1-2,.51,1.74,1.74,0,0,1-1.44-.62,3.55,3.55,0,0,1-.49-2.17,13,13,0,0,1,.2-2.26q4.16-1.87,5.43-2.6a11.5,11.5,0,0,0,3.53-2.88,4.76,4.76,0,0,0,1-2.8,2.83,2.83,0,0,0-.82-2.14A3.35,3.35,0,0,0,263.59,998.9Zm-1.19,6.4a17,17,0,0,1-5.3,3.4,22.33,22.33,0,0,1,1.42-4.91,6,6,0,0,1,1.74-2.45,2.49,2.49,0,0,1,1.57-.62,1.65,1.65,0,0,1,1.29.56,2.22,2.22,0,0,1,.49,1.5A3.68,3.68,0,0,1,262.4,1005.3Z"/><path class="cls-3" d="M292.46,998.86a1.39,1.39,0,0,0-1,.41,1.46,1.46,0,0,0-.41,1.06,9.82,9.82,0,0,0,.4,2.19,8.89,8.89,0,0,1,.37,2.22q0,4-3.7,10.83c0-.68,0-1.2,0-1.53a26.27,26.27,0,0,0-1.32-8,20.37,20.37,0,0,0-3.24-6.56,1.15,1.15,0,0,0-.88-.52,2.33,2.33,0,0,0-1,.26,31.41,31.41,0,0,0-3.33,2.08l-1.62,1.1.7,1a6.11,6.11,0,0,1,3.07-1.45,2.22,2.22,0,0,1,1.73,1.16,17.34,17.34,0,0,1,2.51,6.53,36.94,36.94,0,0,1,.89,7.31,8.76,8.76,0,0,1-1.19,4.3,11.84,11.84,0,0,1-3.24,3.65,4.74,4.74,0,0,1-2.83,1.12,10.26,10.26,0,0,1-1.88-.31,10,10,0,0,0-2-.28,2.35,2.35,0,0,0-1.53.47,1.42,1.42,0,0,0-.57,1.13,1.55,1.55,0,0,0,.73,1.28,3.67,3.67,0,0,0,2.18.54,9.46,9.46,0,0,0,4.05-1,16,16,0,0,0,4.42-3.38,36.55,36.55,0,0,0,5.07-7.21,45.19,45.19,0,0,0,4.06-9.07,24.82,24.82,0,0,0,1.3-7.05,2.68,2.68,0,0,0-.47-1.69A1.53,1.53,0,0,0,292.46,998.86Z"/><path class="cls-3" d="M305.89,999q-4.93,0-8.25,4.84a14.94,14.94,0,0,0-2.63,8.51,5.86,5.86,0,0,0,1.44,4.18,4.92,4.92,0,0,0,3.78,1.54q3.81,0,7.23-3.87a12.84,12.84,0,0,0,3.42-8.74,7.2,7.2,0,0,0-1.42-4.75A4.46,4.46,0,0,0,305.89,999Zm-.68,15.08q-1.51,2.28-3.36,2.28a2.4,2.4,0,0,1-2.1-1.21,8.08,8.08,0,0,1-1.08-4.49,13.29,13.29,0,0,1,1.75-7.36q1.74-2.65,3.6-2.66a2.61,2.61,0,0,1,2.23,1.4,9.22,9.22,0,0,1,.89,4.69A13.25,13.25,0,0,1,305.21,1014Z"/><path class="cls-3" d="M328.08,1015.3a1.69,1.69,0,0,1-.88.33.55.55,0,0,1-.43-.22.89.89,0,0,1-.2-.64,59.46,59.46,0,0,1,1.82-7.59l2.06-7.66h-3.12l-2.39,9a9.5,9.5,0,0,1-3,4.61c-1.5,1.35-2.66,2-3.48,2a.88.88,0,0,1-.65-.33,1.18,1.18,0,0,1-.29-.79A50,50,0,0,1,319,1008a42.1,42.1,0,0,0,1.58-7.44,1.83,1.83,0,0,0-.33-1.2,1,1,0,0,0-.85-.38,5.7,5.7,0,0,0-2.49.82,26.42,26.42,0,0,0-4.48,3.45l1,.77a17.16,17.16,0,0,1,2.32-2,2.37,2.37,0,0,1,1.08-.41c.29,0,.44.21.44.61a39.32,39.32,0,0,1-1.47,6.35q-1.17,4.17-1.45,5.55a9.66,9.66,0,0,0-.2,1.85,2.43,2.43,0,0,0,.44,1.6,1.51,1.51,0,0,0,1.21.5A6.83,6.83,0,0,0,319,1017a19.33,19.33,0,0,0,4.82-3.93,13.68,13.68,0,0,0-.47,3.05,2.15,2.15,0,0,0,.49,1.52,1.57,1.57,0,0,0,1.2.54c1.38,0,3.55-1.53,6.48-4.58l-.72-.81A26.5,26.5,0,0,1,328.08,1015.3Z"/><path class="cls-3" d="M346.83,997.85a3.83,3.83,0,0,0-2.24,1.19,28.23,28.23,0,0,0-5,6l1-3.94a10.49,10.49,0,0,0,.29-1.52.58.58,0,0,0-.23-.47,1,1,0,0,0-.63-.19,7.71,7.71,0,0,0-3.21,1.13,16.81,16.81,0,0,0-4.2,3.39l.68.77a21.15,21.15,0,0,1,2.46-2.23,2.18,2.18,0,0,1,1-.45c.32,0,.48.18.48.53a9.08,9.08,0,0,1-.2,1.2q-.83,3.9-1.95,8.24l-1.53,5.9h3.26l1-4.25a47.17,47.17,0,0,1,1.47-5.45,13,13,0,0,1,1.7-2.75,12.83,12.83,0,0,1,2.24-2.35,9.55,9.55,0,0,1,2.64-1.31,6.36,6.36,0,0,0,2.13-1,1.32,1.32,0,0,0,.43-1,1.34,1.34,0,0,0-.44-1A1.49,1.49,0,0,0,346.83,997.85Z"/><path class="cls-3" d="M377.32,989.45a16.46,16.46,0,0,0,2,.22,1.94,1.94,0,0,0,1.32-.42,1.43,1.43,0,0,0,.48-1.11,1.46,1.46,0,0,0-.52-1.16,2,2,0,0,0-1.4-.46,9.76,9.76,0,0,0-3.59.77,10.79,10.79,0,0,0-3.41,2.2,11.72,11.72,0,0,0-2.43,3.38,33.5,33.5,0,0,0-2,6.23,10.5,10.5,0,0,0-1.45-.15,8.26,8.26,0,0,0-4.79,1.94,17.38,17.38,0,0,0-4.76,6,15.81,15.81,0,0,0-2.13,7.17,4.8,4.8,0,0,0,.79,3,2.37,2.37,0,0,0,1.95,1,6.4,6.4,0,0,0,3.15-1,21,21,0,0,0,4.39-3.84l-.77,2.68a5.25,5.25,0,0,0-.24,1.23.89.89,0,0,0,.33.67,1.25,1.25,0,0,0,.85.29,7.05,7.05,0,0,0,3.12-1.11,35.43,35.43,0,0,0,4.36-3.29l-.62-.84a31,31,0,0,1-2.89,2.09,2,2,0,0,1-.92.28c-.42,0-.64-.28-.64-.83a18.31,18.31,0,0,1,.55-3.12l3.1-13.24q1.25-5.29,1.59-6.29a4.67,4.67,0,0,1,1.11-2,2.07,2.07,0,0,1,1.36-.48A18.77,18.77,0,0,1,377.32,989.45Zm-10.95,16.47a28.58,28.58,0,0,1-1.6,5.38,9.19,9.19,0,0,1-2.68,3,3.87,3.87,0,0,1-2.1.81,1.76,1.76,0,0,1-1.37-.72,2.73,2.73,0,0,1-.6-1.83,16.11,16.11,0,0,1,1.3-5.77,11.12,11.12,0,0,1,2.71-4.47,4.47,4.47,0,0,1,2.87-1.15,13.42,13.42,0,0,1,2.48.39Z"/><path class="cls-3" d="M391.83,1013.52l-.7-.85a14.76,14.76,0,0,1-2.61,2,2.69,2.69,0,0,1-1.12.46c-.36,0-.55-.23-.55-.68a19.33,19.33,0,0,1,.49-3q.87-4.32,1.86-7.63l1.64-5.54-1.44.3-.53.86a11.52,11.52,0,0,0-1.42-.09,10.84,10.84,0,0,0-4.56.83,14.07,14.07,0,0,0-4.39,3.42,19.23,19.23,0,0,0-3.32,5.18,13.05,13.05,0,0,0-1.24,5.17,5.11,5.11,0,0,0,.92,3.16,2.31,2.31,0,0,0,1.95.9,5.63,5.63,0,0,0,2.94-1,18.51,18.51,0,0,0,4.49-3.88l-.87,3a3.2,3.2,0,0,0-.18.9,1,1,0,0,0,.29.76,1.19,1.19,0,0,0,.85.27,4.51,4.51,0,0,0,1.62-.31,12.3,12.3,0,0,0,2.68-1.42C389.1,1016,390.16,1015,391.83,1013.52Zm-7-4.75a9.76,9.76,0,0,1-2.54,4.7,5,5,0,0,1-3.25,1.63,1.56,1.56,0,0,1-1.31-.66,3.51,3.51,0,0,1-.51-2.14,13.72,13.72,0,0,1,1.26-5.63,9.73,9.73,0,0,1,2.73-3.9,5.66,5.66,0,0,1,3.44-1.08,10.4,10.4,0,0,1,2,.24Z"/><path class="cls-3" d="M407.8,998.86a1.39,1.39,0,0,0-1,.41,1.46,1.46,0,0,0-.4,1.06,10.26,10.26,0,0,0,.39,2.19,8.89,8.89,0,0,1,.37,2.22q0,4-3.7,10.83c0-.68,0-1.2,0-1.53a26.55,26.55,0,0,0-1.31-8,20.57,20.57,0,0,0-3.25-6.56,1.15,1.15,0,0,0-.87-.52,2.26,2.26,0,0,0-1,.26,30.23,30.23,0,0,0-3.34,2.08l-1.62,1.1.7,1a6.11,6.11,0,0,1,3.07-1.45,2.21,2.21,0,0,1,1.73,1.16,17.17,17.17,0,0,1,2.51,6.53A36.2,36.2,0,0,1,401,1017a8.76,8.76,0,0,1-1.19,4.3,11.84,11.84,0,0,1-3.24,3.65,4.74,4.74,0,0,1-2.82,1.12,10.2,10.2,0,0,1-1.89-.31,10,10,0,0,0-2-.28,2.35,2.35,0,0,0-1.53.47,1.42,1.42,0,0,0-.57,1.13,1.55,1.55,0,0,0,.73,1.28,3.67,3.67,0,0,0,2.18.54,9.42,9.42,0,0,0,4.05-1,16.16,16.16,0,0,0,4.43-3.38,37,37,0,0,0,5.06-7.21,45.85,45.85,0,0,0,4.07-9.07,25.11,25.11,0,0,0,1.29-7.05,2.68,2.68,0,0,0-.47-1.69A1.53,1.53,0,0,0,407.8,998.86Z"/><path class="cls-3" d="M433.84,1014.69a2.71,2.71,0,0,1-1.11.46c-.37,0-.55-.23-.55-.68a20.14,20.14,0,0,1,.48-3c.58-2.88,1.21-5.42,1.86-7.63l1.65-5.54-1.45.3-.53.86a11.4,11.4,0,0,0-1.42-.09,10.84,10.84,0,0,0-4.56.83,14,14,0,0,0-4.38,3.42,19.27,19.27,0,0,0-3.33,5.18,13.2,13.2,0,0,0-1.23,5.17,5,5,0,0,0,.92,3.16,2.29,2.29,0,0,0,1.95.9,5.6,5.6,0,0,0,2.93-1,18.75,18.75,0,0,0,4.5-3.88l-.88,3a3.51,3.51,0,0,0-.17.9,1,1,0,0,0,.28.76,1.22,1.22,0,0,0,.86.27,4.59,4.59,0,0,0,1.62-.31,12,12,0,0,0,2.67-1.42c.47-.33,1.54-1.25,3.2-2.77l-.7-.85A14.76,14.76,0,0,1,433.84,1014.69Zm-3.66-5.92a9.76,9.76,0,0,1-2.54,4.7,4.93,4.93,0,0,1-3.24,1.63,1.58,1.58,0,0,1-1.32-.66,3.51,3.51,0,0,1-.5-2.14,13.72,13.72,0,0,1,1.26-5.63,9.73,9.73,0,0,1,2.73-3.9,5.62,5.62,0,0,1,3.44-1.08,10.31,10.31,0,0,1,2,.24Z"/><path class="cls-3" d="M461,1015.32a1.44,1.44,0,0,1-.81.26c-.41,0-.62-.24-.62-.74a39.93,39.93,0,0,1,1.73-6.77c.92-3.06,1.46-4.89,1.6-5.49a6.39,6.39,0,0,0,.22-1.55,2.29,2.29,0,0,0-.5-1.62,1.89,1.89,0,0,0-1.43-.53,6.32,6.32,0,0,0-2.87,1.09,21.71,21.71,0,0,0-4.35,3.69,12.94,12.94,0,0,0,.66-3.14,1.78,1.78,0,0,0-.37-1.25,1.44,1.44,0,0,0-1.09-.39q-2.77,0-8,5.35c.13-.72.37-1.69.71-2.92a8,8,0,0,0,.35-1.68.69.69,0,0,0-.23-.55,1.08,1.08,0,0,0-.7-.2,7.25,7.25,0,0,0-3.08,1,17.61,17.61,0,0,0-4.12,3.2l.65.88q2.64-2.5,3.49-2.5c.26,0,.39.17.39.5s-.36,1.91-1.09,4.94l-2.48,10.45h3.15l1.69-7.41a14,14,0,0,1,1.63-4.44,12.12,12.12,0,0,1,3.11-3,3.92,3.92,0,0,1,1.84-.92.69.69,0,0,1,.51.18.81.81,0,0,1,.17.54,12.53,12.53,0,0,1-.35,1.67l-3.26,13.39h3.11q.72-3.42,2.19-8.83a10.69,10.69,0,0,1,1.53-3.62,11.32,11.32,0,0,1,3.16-2.78,3.09,3.09,0,0,1,1.47-.55c.44,0,.66.25.66.74a25.59,25.59,0,0,1-1.12,4.5q-1.49,4.93-1.8,6.34a12.2,12.2,0,0,0-.3,2.47,2.82,2.82,0,0,0,.5,1.79,1.45,1.45,0,0,0,1.16.64,4.54,4.54,0,0,0,2.15-.74,21.31,21.31,0,0,0,2.41-2c.85-.78,1.43-1.29,1.73-1.54l-.72-.79A20.9,20.9,0,0,1,461,1015.32Z"/><path class="cls-3" d="M482.25,1012.67a15.52,15.52,0,0,1-2.61,2,2.74,2.74,0,0,1-1.12.46c-.37,0-.55-.23-.55-.68a20.14,20.14,0,0,1,.48-3q.89-4.32,1.87-7.63l1.64-5.54-1.45.3-.52.86a11.56,11.56,0,0,0-1.43-.09,10.9,10.9,0,0,0-4.56.83,14.15,14.15,0,0,0-4.38,3.42,19,19,0,0,0-3.32,5.18,13.05,13.05,0,0,0-1.24,5.17,5.11,5.11,0,0,0,.92,3.16,2.29,2.29,0,0,0,1.95.9,5.66,5.66,0,0,0,2.94-1,18.51,18.51,0,0,0,4.49-3.88l-.87,3a3.2,3.2,0,0,0-.18.9,1,1,0,0,0,.29.76,1.19,1.19,0,0,0,.85.27,4.51,4.51,0,0,0,1.62-.31,12.3,12.3,0,0,0,2.68-1.42c.46-.33,1.53-1.25,3.2-2.77Zm-6.27-3.9a9.68,9.68,0,0,1-2.55,4.7,4.91,4.91,0,0,1-3.24,1.63,1.59,1.59,0,0,1-1.32-.66,3.58,3.58,0,0,1-.5-2.14,13.72,13.72,0,0,1,1.26-5.63,9.73,9.73,0,0,1,2.73-3.9,5.66,5.66,0,0,1,3.44-1.08,10.4,10.4,0,0,1,2,.24Z"/><path class="cls-3" d="M501.09,998.44a1.49,1.49,0,0,0-.79.35,3.57,3.57,0,0,1-2.22.79,29.13,29.13,0,0,1-3.81-.41,17.13,17.13,0,0,0-2.61-.27,4.55,4.55,0,0,0-3.09,1.08,3.27,3.27,0,0,0-1.25,2.56,2.84,2.84,0,0,0,.67,1.94,1.92,1.92,0,0,0,1.46.78,1,1,0,0,0,.7-.3.92.92,0,0,0,.31-.67c0-.52-.33-.82-1-.89a.75.75,0,0,1-.79-.82,1,1,0,0,1,.35-.78,1.45,1.45,0,0,1,1-.31c.35,0,1,.06,2.08.17a19.19,19.19,0,0,0,2,.11,14.1,14.1,0,0,0,3.66-.54l-3.44,3.41q-2.55,2.52-5.92,5.59-5,4.53-6.22,6a1.52,1.52,0,0,0-.46.91c0,.27.27.4.81.4a1.6,1.6,0,0,0,1-.5,3,3,0,0,1,1.73-.78,15.35,15.35,0,0,1,3.86.78,18.41,18.41,0,0,0,4.8.94,7.14,7.14,0,0,0,3.36-.72,6.32,6.32,0,0,0,2.26-2.08,4.78,4.78,0,0,0,.89-2.59,2.06,2.06,0,0,0-.42-1.33,1.34,1.34,0,0,0-1.07-.51,1.13,1.13,0,0,0-.87.37,1.24,1.24,0,0,0-.35.9,2.74,2.74,0,0,0,.3,1,2.44,2.44,0,0,1,.35,1,1.35,1.35,0,0,1-.49,1.08,2.07,2.07,0,0,1-1.41.43,12.38,12.38,0,0,1-3.82-.81c-1.2-.39-2.07-.65-2.61-.76a9.84,9.84,0,0,0-1.79-.16c-.47,0-1.12,0-2,.14q2-1.76,5-4.6l6.79-6.5c1.77-1.7,2.91-2.85,3.4-3.46a.77.77,0,0,0,.24-.49.44.44,0,0,0-.18-.31A.68.68,0,0,0,501.09,998.44Z"/><path class="cls-3" d="M513.7,990a1.48,1.48,0,0,0-1.11-.45,2,2,0,0,0-1.52.69,2.4,2.4,0,0,0-.63,1.68,1.63,1.63,0,0,0,.44,1.2,1.42,1.42,0,0,0,1.09.46,2,2,0,0,0,1.5-.73,2.44,2.44,0,0,0,.67-1.7A1.54,1.54,0,0,0,513.7,990Z"/><path class="cls-3" d="M508.27,1015.47a.4.4,0,0,1-.33-.2.86.86,0,0,1-.15-.52c0-1.07.77-4.19,2.31-9.38a40.31,40.31,0,0,0,1.42-5.39,1,1,0,0,0-.37-.84,1.66,1.66,0,0,0-1.07-.3,6.59,6.59,0,0,0-3.08,1,17.1,17.1,0,0,0-4,3.43l1,.74a22,22,0,0,1,2.49-2.23,1.86,1.86,0,0,1,1-.35c.26,0,.39.14.39.43a3.13,3.13,0,0,1-.15.9q-3.29,10.65-3.29,13.4a1.86,1.86,0,0,0,.45,1.33,1.59,1.59,0,0,0,1.22.49,5,5,0,0,0,2.25-.79,29,29,0,0,0,4.39-3.62l-.86-.83C509.93,1014.57,508.74,1015.47,508.27,1015.47Z"/><path class="cls-3" d="M532.63,1013.55l-.54-.79c-.65.49-1.29,1-1.93,1.62a4,4,0,0,1-2,1.23.42.42,0,0,1-.37-.23,1.32,1.32,0,0,1-.13-.67,25.73,25.73,0,0,1,1.39-5.94c1-3.19,1.61-5.26,1.84-6.21a7,7,0,0,0,.2-1.53,2.28,2.28,0,0,0-.49-1.58,1.66,1.66,0,0,0-1.33-.55,6,6,0,0,0-2.95,1.12,27.06,27.06,0,0,0-5.61,4.63l1-4.41a4.34,4.34,0,0,0,.11-.7.57.57,0,0,0-.26-.46,1.22,1.22,0,0,0-.73-.2,6.32,6.32,0,0,0-2.85.88,22.9,22.9,0,0,0-4.47,3.57l.74.77a13.74,13.74,0,0,1,2.54-2.21,2.09,2.09,0,0,1,1-.47c.29,0,.44.2.44.6a4.33,4.33,0,0,1-.11.72l-2,8.34c-.45,2-1,4.11-1.6,6.3h3.27l1.77-7.66a10.72,10.72,0,0,1,1.47-3.78,13.7,13.7,0,0,1,3.44-3.2,4.41,4.41,0,0,1,2.26-.92c.54,0,.81.22.81.68a23.8,23.8,0,0,1-.74,3.22q-2.45,7.75-2.44,9.71a3.3,3.3,0,0,0,.46,2,1.55,1.55,0,0,0,1.3.61,4.55,4.55,0,0,0,2.28-.88A20,20,0,0,0,532.63,1013.55Z"/><path class="cls-3" d="M548.32,999.45c-.6,0-1.1,0-1.51,0a10.23,10.23,0,0,0-5.22,1.22,16.88,16.88,0,0,0-5.78,6,15.36,15.36,0,0,0-2.4,8,3.06,3.06,0,0,0,.63,2,1.85,1.85,0,0,0,1.44.75,6.29,6.29,0,0,0,2.54-.83c-1,.6-2,1.18-3.06,1.75a15.22,15.22,0,0,0-4.22,2.81,4.87,4.87,0,0,0-1.36,3.31,4.07,4.07,0,0,0,1.7,3.19,7.12,7.12,0,0,0,4.66,1.39,10.66,10.66,0,0,0,6-1.64,8.28,8.28,0,0,0,3.43-4.34,16.9,16.9,0,0,0,.71-5.09,21.48,21.48,0,0,1,.21-3.11,62.55,62.55,0,0,1,1.34-6.14q1.33-5.16,2.93-10.28l-1.77.39Zm-5.42,17.47a22.74,22.74,0,0,1-.41,4.65,8.28,8.28,0,0,1-1.44,3.14,7.26,7.26,0,0,1-2.45,2.13,6.22,6.22,0,0,1-2.9.74,3.91,3.91,0,0,1-2.69-1,3,3,0,0,1-1.11-2.25,3.89,3.89,0,0,1,.86-2.41,22.9,22.9,0,0,1,4.61-3.66,64.09,64.09,0,0,0,5.75-4.28C543,1015.52,542.92,1016.5,542.9,1016.92Zm1.6-9a17,17,0,0,1-1.68,4.38,7.23,7.23,0,0,1-2.11,2.12,4.27,4.27,0,0,1-2.17.84,1.66,1.66,0,0,1-1.3-.7,2.6,2.6,0,0,1-.58-1.73,17.35,17.35,0,0,1,1.46-6.16,8.32,8.32,0,0,1,2.54-3.68,5.83,5.83,0,0,1,3.57-1.1,10.57,10.57,0,0,1,1.87.2Z"/><path class="cls-3" d="M588.49,998.55a1.42,1.42,0,0,0-1,.41,1.3,1.3,0,0,0-.42,1,5.26,5.26,0,0,0,.56,1.82,4.49,4.49,0,0,1,.5,1.76,9.51,9.51,0,0,1-.94,3.54,15.31,15.31,0,0,1-2.76,4.15,29.67,29.67,0,0,1-5.1,4.52,35.88,35.88,0,0,1-.85-8.77,22.92,22.92,0,0,0,1.4-3.62,7.48,7.48,0,0,0,.35-2.13,2.78,2.78,0,0,0-.44-1.72,1.4,1.4,0,0,0-1.13-.58c-.76,0-1.46.62-2.09,1.84a16.92,16.92,0,0,0-1.42,7.61c0,.29,0,.75,0,1.38a26.86,26.86,0,0,1-6.27,6,31.5,31.5,0,0,1-.88-5.84,12.63,12.63,0,0,1,.32-2.82,14.66,14.66,0,0,1,.95-2.77L571,1001c.85-.21,1.28-.61,1.28-1.18a.94.94,0,0,0-.27-.67.87.87,0,0,0-.67-.27,3.09,3.09,0,0,0-1.52.7c-3.81-.07-6.47.42-8,1.49a3.34,3.34,0,0,0-1.58,2.85,2.25,2.25,0,0,0,.4,1.43,1.2,1.2,0,0,0,1,.5,1,1,0,0,0,.73-.29.89.89,0,0,0,.29-.68,2.6,2.6,0,0,0-.24-.87,2.71,2.71,0,0,1-.26-.92q0-.77,1.14-1.32a15,15,0,0,1,5.65-.92,11.13,11.13,0,0,0-3.32,3.87,9.86,9.86,0,0,0-1.11,4.48,34,34,0,0,0,.77,5.62c.37,1.85.6,3.2.7,4a20.53,20.53,0,0,0,2.88-1.48,27.33,27.33,0,0,0,2.79-2.05q.72-.6,3.69-3.57a48.74,48.74,0,0,0,1.3,7.1,26.87,26.87,0,0,0,9.58-7.65q3.92-4.95,3.92-9.47a5,5,0,0,0-.43-2.47A1.31,1.31,0,0,0,588.49,998.55Z"/><path class="cls-3" d="M600.11,989.52a2,2,0,0,0-1.51.69,2.37,2.37,0,0,0-.64,1.68,1.67,1.67,0,0,0,.44,1.2,1.44,1.44,0,0,0,1.09.46,2,2,0,0,0,1.51-.73,2.47,2.47,0,0,0,.66-1.7,1.58,1.58,0,0,0-.43-1.15A1.52,1.52,0,0,0,600.11,989.52Z"/><path class="cls-3" d="M595.79,1015.47a.4.4,0,0,1-.33-.2.86.86,0,0,1-.15-.52c0-1.07.77-4.19,2.31-9.38a41.3,41.3,0,0,0,1.43-5.39,1,1,0,0,0-.38-.84,1.64,1.64,0,0,0-1.07-.3,6.59,6.59,0,0,0-3.08,1,17.1,17.1,0,0,0-4,3.43l1,.74a22,22,0,0,1,2.49-2.23,1.89,1.89,0,0,1,1-.35c.26,0,.39.14.39.43a3.13,3.13,0,0,1-.15.9q-3.29,10.65-3.29,13.4a1.86,1.86,0,0,0,.45,1.33,1.6,1.6,0,0,0,1.22.49,5,5,0,0,0,2.26-.79,29.08,29.08,0,0,0,4.38-3.62l-.86-.83Q596.5,1015.48,595.79,1015.47Z"/><path class="cls-3" d="M610.72,994.23l-3.48,1.34-1.22,4.8h-3.56l-.39,1.56h3.55l-2.23,8.72a21.43,21.43,0,0,0-.84,4.82,3.12,3.12,0,0,0,.47,1.93,1.57,1.57,0,0,0,1.29.6,6.19,6.19,0,0,0,2.6-.82,54.52,54.52,0,0,0,6.43-4.42l-.84-1a27.7,27.7,0,0,1-3.5,2.43,4.91,4.91,0,0,1-2.09.81.94.94,0,0,1-.69-.26,1.26,1.26,0,0,1-.25-.86,21.32,21.32,0,0,1,.91-4.6l1.91-7.34h4.55l.35-1.56h-4.54Z"/><path class="cls-3" d="M630.65,1014.36c-1,.83-1.63,1.25-2,1.25a.4.4,0,0,1-.36-.18.94.94,0,0,1-.12-.53,10.08,10.08,0,0,1,.25-2q.25-1.14,1.69-5.84,1.05-3.39,1.34-4.69a6.25,6.25,0,0,0,.17-1.49,1.93,1.93,0,0,0-.48-1.4,1.75,1.75,0,0,0-1.34-.5,6,6,0,0,0-2.89,1.11,28.53,28.53,0,0,0-5.69,4.62l2.45-10.82A11.48,11.48,0,0,1,625,990a2,2,0,0,1,1.65-.82,22.77,22.77,0,0,1,2.61.28,10,10,0,0,0,1.36.12,2.15,2.15,0,0,0,1.46-.46,1.34,1.34,0,0,0,.54-1,1.46,1.46,0,0,0-.55-1.18,2.22,2.22,0,0,0-1.49-.47,9.51,9.51,0,0,0-4.57,1.26,10.54,10.54,0,0,0-3.75,3.35,17.46,17.46,0,0,0-2.31,6l-3.22,14.06q-.57,2.43-1.63,6.26h3.27l1.73-7.65a10.08,10.08,0,0,1,1.52-3.74,13.61,13.61,0,0,1,3.43-3.23,4.51,4.51,0,0,1,2.31-.92c.5,0,.74.23.74.7a21,21,0,0,1-.74,3.18q-1.7,5.52-2.05,7.2a13.29,13.29,0,0,0-.36,2.55,3.09,3.09,0,0,0,.47,1.91,1.49,1.49,0,0,0,1.24.62,4.89,4.89,0,0,0,2.39-.9,19.79,19.79,0,0,0,4.14-3.55l-.57-.82C631.84,1013.36,631.19,1013.9,630.65,1014.36Z"/><path class="cls-3" d="M656.28,1006.11c.74,0,1.29.07,1.63.07a14.72,14.72,0,0,0,6.2-1.27,10,10,0,0,0,4.21-3.34,7.34,7.34,0,0,0,1.43-4.22,5.35,5.35,0,0,0-1-3.14,6.79,6.79,0,0,0-3.06-2.28,14.23,14.23,0,0,0-5.25-.83q-8.43,0-13.42,5.39a13,13,0,0,0-3.81,9.08,7.77,7.77,0,0,0,1.21,4.49,3.27,3.27,0,0,0,2.51,1.78,1.16,1.16,0,0,0,.83-.33,1.06,1.06,0,0,0,.36-.81c0-.5-.36-1-1.08-1.54a6.06,6.06,0,0,1-1.8-2,5.44,5.44,0,0,1-.5-2.4,10.17,10.17,0,0,1,1.94-5.69,14.48,14.48,0,0,1,5.51-4.74,15.69,15.69,0,0,1,7.29-1.85,7.61,7.61,0,0,1,4.85,1.29,4.28,4.28,0,0,1,1.59,3.51,7.32,7.32,0,0,1-1.31,4.17,7.4,7.4,0,0,1-3,2.69,6.51,6.51,0,0,1-3.06.7l-2-.11,1.65-6.17q.63-2.49,1.17-4a37.75,37.75,0,0,1-5.44.88l-.26,1a2.82,2.82,0,0,1,.44,0,1,1,0,0,1,.68.27.89.89,0,0,1,.28.63,6.24,6.24,0,0,1-.22,1.29l-3.3,13.13a7.63,7.63,0,0,1-1.93,4,6.67,6.67,0,0,1-3.11,1.07l-.27,1.17a19.61,19.61,0,0,1,4.36-.51,23.24,23.24,0,0,1,2.85.22,33.16,33.16,0,0,0,3.33.24,11.36,11.36,0,0,0,2.89-.46l.26-1.23a10.9,10.9,0,0,1-3.44.62,12.7,12.7,0,0,1-3-.42c.36-1.12.69-2.26,1-3.41Z"/><path class="cls-3" d="M682.75,1000.28a1.32,1.32,0,0,0,.43-1,1.34,1.34,0,0,0-.44-1,1.49,1.49,0,0,0-1.1-.43A3.83,3.83,0,0,0,679.4,999a28.23,28.23,0,0,0-5,6l1-3.94a10.49,10.49,0,0,0,.29-1.52.58.58,0,0,0-.23-.47,1,1,0,0,0-.63-.19,7.71,7.71,0,0,0-3.21,1.13,16.6,16.6,0,0,0-4.19,3.39l.67.77a21.15,21.15,0,0,1,2.46-2.23,2.18,2.18,0,0,1,1-.45c.32,0,.48.18.48.53a9.08,9.08,0,0,1-.2,1.2q-.82,3.9-1.95,8.24l-1.53,5.9h3.26l1-4.25a47.17,47.17,0,0,1,1.47-5.45,13,13,0,0,1,1.7-2.75,12.83,12.83,0,0,1,2.24-2.35,9.55,9.55,0,0,1,2.64-1.31A6.36,6.36,0,0,0,682.75,1000.28Z"/><path class="cls-3" d="M689.24,993.55a2,2,0,0,0,1.5-.73,2.44,2.44,0,0,0,.67-1.7A1.54,1.54,0,0,0,691,990a1.48,1.48,0,0,0-1.11-.45,2,2,0,0,0-1.52.69,2.4,2.4,0,0,0-.63,1.68,1.63,1.63,0,0,0,.44,1.2A1.42,1.42,0,0,0,689.24,993.55Z"/><path class="cls-3" d="M689.13,1012.76q-2.89,2.72-3.59,2.71a.4.4,0,0,1-.33-.2.87.87,0,0,1-.16-.52c0-1.07.78-4.19,2.32-9.38a40.31,40.31,0,0,0,1.42-5.39,1,1,0,0,0-.37-.84,1.66,1.66,0,0,0-1.07-.3,6.59,6.59,0,0,0-3.08,1,17.1,17.1,0,0,0-4,3.43l1,.74a22,22,0,0,1,2.49-2.23,1.86,1.86,0,0,1,1-.35c.26,0,.39.14.39.43a3.13,3.13,0,0,1-.15.9q-3.3,10.65-3.29,13.4a1.86,1.86,0,0,0,.45,1.33,1.58,1.58,0,0,0,1.21.49,5,5,0,0,0,2.26-.79,29.52,29.52,0,0,0,4.39-3.62Z"/><path class="cls-3" d="M705.81,998.86a1.39,1.39,0,0,0-1,.41,1.46,1.46,0,0,0-.41,1.06,10.26,10.26,0,0,0,.39,2.19,9,9,0,0,1,.38,2.22q0,4-3.71,10.83c0-.68,0-1.2,0-1.53a26.27,26.27,0,0,0-1.32-8,20.78,20.78,0,0,0-3.24-6.56,1.15,1.15,0,0,0-.88-.52,2.29,2.29,0,0,0-1,.26,31.41,31.41,0,0,0-3.33,2.08l-1.62,1.1.7,1a6.07,6.07,0,0,1,3.07-1.45,2.22,2.22,0,0,1,1.73,1.16,17.34,17.34,0,0,1,2.51,6.53A36.94,36.94,0,0,1,699,1017a8.67,8.67,0,0,1-1.2,4.3,11.68,11.68,0,0,1-3.23,3.65,4.76,4.76,0,0,1-2.83,1.12,10.26,10.26,0,0,1-1.88-.31,10.15,10.15,0,0,0-2-.28,2.36,2.36,0,0,0-1.54.47,1.42,1.42,0,0,0-.57,1.13,1.56,1.56,0,0,0,.74,1.28,3.65,3.65,0,0,0,2.18.54,9.38,9.38,0,0,0,4-1,16,16,0,0,0,4.43-3.38,36.55,36.55,0,0,0,5.07-7.21,45.77,45.77,0,0,0,4.06-9.07,25.11,25.11,0,0,0,1.29-7.05,2.62,2.62,0,0,0-.47-1.69A1.5,1.5,0,0,0,705.81,998.86Z"/><path class="cls-3" d="M719.23,999q-4.93,0-8.24,4.84a14.94,14.94,0,0,0-2.63,8.51,5.9,5.9,0,0,0,1.43,4.18,4.93,4.93,0,0,0,3.79,1.54q3.81,0,7.23-3.87a12.84,12.84,0,0,0,3.42-8.74,7.2,7.2,0,0,0-1.43-4.75A4.44,4.44,0,0,0,719.23,999Zm-.68,15.08c-1,1.52-2.12,2.28-3.35,2.28a2.41,2.41,0,0,1-2.11-1.21,8.17,8.17,0,0,1-1.07-4.49,13.38,13.38,0,0,1,1.74-7.36c1.16-1.77,2.37-2.66,3.61-2.66a2.59,2.59,0,0,1,2.22,1.4,9.11,9.11,0,0,1,.89,4.69A13.16,13.16,0,0,1,718.55,1014Z"/><path class="cls-3" d="M750.32,1000.37h-5.81l1.1-4.67a15.07,15.07,0,0,1,1.87-4.83,3.22,3.22,0,0,1,2.61-1.79,8.33,8.33,0,0,1,1.64.22,16.57,16.57,0,0,0,2.9.46,1.7,1.7,0,0,0,1.21-.44,1.42,1.42,0,0,0,.46-1.09,1.54,1.54,0,0,0-.68-1.25,3.25,3.25,0,0,0-2-.53,10.2,10.2,0,0,0-5,1.55,12.26,12.26,0,0,0-4.34,4.22,28.27,28.27,0,0,0-3,8.15H736l-.39,1.56h5.24l-4.45,17.89q-1,4-2,5a4.24,4.24,0,0,1-3.16,1,21.58,21.58,0,0,1-2.94-.2,13,13,0,0,0-1.36-.11,2.17,2.17,0,0,0-1.41.41,1.33,1.33,0,0,0-.5,1.09,1.6,1.6,0,0,0,.72,1.32,3.41,3.41,0,0,0,2.09.54,11,11,0,0,0,7.64-3.29q3.53-3.28,5.12-9.67l3.43-14H750Z"/><path class="cls-3" d="M763.26,1014.69a2.69,2.69,0,0,1-1.12.46c-.36,0-.54-.23-.54-.68a20.14,20.14,0,0,1,.48-3q.87-4.32,1.86-7.63l1.65-5.54-1.45.3-.53.86a11.4,11.4,0,0,0-1.42-.09,10.84,10.84,0,0,0-4.56.83,14.07,14.07,0,0,0-4.39,3.42,19.48,19.48,0,0,0-3.32,5.18,13.23,13.23,0,0,0-1.24,5.17,5,5,0,0,0,.93,3.16,2.29,2.29,0,0,0,1.95.9,5.6,5.6,0,0,0,2.93-1,18.75,18.75,0,0,0,4.5-3.88l-.88,3a3.12,3.12,0,0,0-.17.9,1,1,0,0,0,.28.76,1.22,1.22,0,0,0,.86.27,4.59,4.59,0,0,0,1.62-.31,12,12,0,0,0,2.67-1.42c.47-.33,1.54-1.25,3.2-2.77l-.7-.85A14.76,14.76,0,0,1,763.26,1014.69Zm-3.66-5.92a9.76,9.76,0,0,1-2.54,4.7,5,5,0,0,1-3.25,1.63,1.58,1.58,0,0,1-1.31-.66,3.51,3.51,0,0,1-.51-2.14,13.57,13.57,0,0,1,1.27-5.63,9.82,9.82,0,0,1,2.72-3.9,5.67,5.67,0,0,1,3.45-1.08,10.31,10.31,0,0,1,2,.24Z"/><path class="cls-3" d="M780.23,999.7a5.17,5.17,0,0,0-3-.75,6.18,6.18,0,0,0-4.41,1.61,4.94,4.94,0,0,0-1.73,3.75,7.49,7.49,0,0,0,2.28,4.88,19.92,19.92,0,0,1,2.11,2.61,3,3,0,0,1,.47,1.57,3.24,3.24,0,0,1-1.9,2.86,5,5,0,0,1-2.07.41,2.38,2.38,0,0,1-1.62-.51,1.51,1.51,0,0,1-.61-1.23c0-.13,0-.29,0-.48s0-.42,0-.57a1.26,1.26,0,0,0-.43-1,1.53,1.53,0,0,0-1.06-.41,1.57,1.57,0,0,0-1.18.51,1.76,1.76,0,0,0-.48,1.27,3.28,3.28,0,0,0,1.27,2.62,6,6,0,0,0,3.88,1.06,7.39,7.39,0,0,0,5.08-1.74,5.26,5.26,0,0,0,2-4.06q0-2.32-2.44-4.9a15.51,15.51,0,0,1-2.21-2.73,3.74,3.74,0,0,1-.44-1.74,2.33,2.33,0,0,1,.69-1.72,2.18,2.18,0,0,1,1.59-.69,2.9,2.9,0,0,1,2.13,1.43,4.5,4.5,0,0,0,.87.93,1.44,1.44,0,0,0,.73.18,1.49,1.49,0,0,0,1.08-.43,1.41,1.41,0,0,0,.45-1A2.15,2.15,0,0,0,780.23,999.7Z"/><path class="cls-3" d="M797.13,1014.36c-1,.83-1.62,1.25-2,1.25a.4.4,0,0,1-.36-.18.94.94,0,0,1-.12-.53,9.41,9.41,0,0,1,.25-2q.26-1.14,1.68-5.84,1-3.39,1.34-4.69a6.26,6.26,0,0,0,.18-1.49,1.9,1.9,0,0,0-.49-1.4,1.73,1.73,0,0,0-1.33-.5,6,6,0,0,0-2.9,1.11,28.82,28.82,0,0,0-5.69,4.62l2.45-10.82a11.19,11.19,0,0,1,1.32-3.83,2,2,0,0,1,1.64-.82,22.65,22.65,0,0,1,2.62.28,9.76,9.76,0,0,0,1.35.12,2.18,2.18,0,0,0,1.47-.46,1.35,1.35,0,0,0,.53-1,1.48,1.48,0,0,0-.54-1.18,2.26,2.26,0,0,0-1.5-.47,9.54,9.54,0,0,0-4.57,1.26,10.42,10.42,0,0,0-3.74,3.35,17.65,17.65,0,0,0-2.32,6l-3.22,14.06q-.57,2.43-1.62,6.26h3.26l1.73-7.65a10.25,10.25,0,0,1,1.52-3.74,13.77,13.77,0,0,1,3.43-3.23,4.54,4.54,0,0,1,2.31-.92c.5,0,.75.23.75.7a21.77,21.77,0,0,1-.75,3.18c-1.12,3.68-1.81,6.08-2.05,7.2a13.29,13.29,0,0,0-.36,2.55,3.16,3.16,0,0,0,.47,1.91,1.5,1.5,0,0,0,1.24.62,4.86,4.86,0,0,0,2.39-.9,19.3,19.3,0,0,0,4.14-3.55l-.57-.82C798.33,1013.36,797.67,1013.9,797.13,1014.36Z"/><path class="cls-3" d="M811.24,990a1.52,1.52,0,0,0-1.12-.45,2,2,0,0,0-1.51.69,2.37,2.37,0,0,0-.64,1.68,1.67,1.67,0,0,0,.44,1.2,1.44,1.44,0,0,0,1.1.46,2,2,0,0,0,1.5-.73,2.48,2.48,0,0,0,.67-1.7A1.58,1.58,0,0,0,811.24,990Z"/><path class="cls-3" d="M805.8,1015.47a.4.4,0,0,1-.33-.2.86.86,0,0,1-.15-.52c0-1.07.77-4.19,2.31-9.38a41.3,41.3,0,0,0,1.43-5.39,1,1,0,0,0-.38-.84,1.64,1.64,0,0,0-1.07-.3,6.59,6.59,0,0,0-3.08,1,17.1,17.1,0,0,0-4,3.43l1,.74a22,22,0,0,1,2.49-2.23,1.89,1.89,0,0,1,1-.35c.26,0,.39.14.39.43a3.13,3.13,0,0,1-.15.9q-3.29,10.65-3.29,13.4a1.86,1.86,0,0,0,.45,1.33,1.6,1.6,0,0,0,1.22.49,5,5,0,0,0,2.26-.79,29.08,29.08,0,0,0,4.38-3.62l-.85-.83Q806.51,1015.48,805.8,1015.47Z"/><path class="cls-3" d="M822,999q-4.93,0-8.24,4.84a14.87,14.87,0,0,0-2.63,8.51,5.9,5.9,0,0,0,1.43,4.18,4.93,4.93,0,0,0,3.79,1.54q3.81,0,7.23-3.87a12.84,12.84,0,0,0,3.42-8.74,7.2,7.2,0,0,0-1.43-4.75A4.46,4.46,0,0,0,822,999Zm-.68,15.08c-1,1.52-2.12,2.28-3.35,2.28a2.41,2.41,0,0,1-2.11-1.21,8.17,8.17,0,0,1-1.07-4.49,13.38,13.38,0,0,1,1.74-7.36c1.16-1.77,2.37-2.66,3.61-2.66a2.59,2.59,0,0,1,2.22,1.4,9.22,9.22,0,0,1,.89,4.69A13.16,13.16,0,0,1,821.31,1014Z"/><path class="cls-3" d="M845.19,1014.38a3.9,3.9,0,0,1-2,1.23.4.4,0,0,1-.37-.23,1.32,1.32,0,0,1-.13-.67,25.73,25.73,0,0,1,1.39-5.94c1-3.19,1.61-5.26,1.84-6.21a6.93,6.93,0,0,0,.19-1.53,2.33,2.33,0,0,0-.48-1.58,1.66,1.66,0,0,0-1.33-.55,6,6,0,0,0-3,1.12,27.25,27.25,0,0,0-5.6,4.63l1-4.41a4.34,4.34,0,0,0,.11-.7.57.57,0,0,0-.26-.46,1.22,1.22,0,0,0-.73-.2,6.32,6.32,0,0,0-2.85.88,23.2,23.2,0,0,0-4.48,3.57l.75.77a13.74,13.74,0,0,1,2.54-2.21,2.09,2.09,0,0,1,1-.47c.29,0,.44.2.44.6a4.33,4.33,0,0,1-.11.72l-1.95,8.34c-.45,2-1,4.11-1.6,6.3h3.26l1.78-7.66a10.53,10.53,0,0,1,1.47-3.78,13.7,13.7,0,0,1,3.44-3.2,4.38,4.38,0,0,1,2.26-.92c.54,0,.81.22.81.68a23,23,0,0,1-.75,3.22q-2.43,7.75-2.43,9.71a3.23,3.23,0,0,0,.46,2,1.55,1.55,0,0,0,1.29.61,4.55,4.55,0,0,0,2.28-.88,19.76,19.76,0,0,0,4.19-3.57l-.55-.79C846.48,1013.25,845.84,1013.79,845.19,1014.38Z"/><path class="cls-3" d="M873.36,986.6a9,9,0,0,0-4.4,1.33,10.64,10.64,0,0,0-3.75,3.55,20.58,20.58,0,0,0-2.37,6.48l-2.59,11.6a21.28,21.28,0,0,0-.59,4.2,4.09,4.09,0,0,0,1.21,3.07,4.4,4.4,0,0,0,3.22,1.19,8.32,8.32,0,0,0,4.86-1.8,13.75,13.75,0,0,0,4.17-5.24,15.75,15.75,0,0,0,1.69-7,6.17,6.17,0,0,0-.92-3.7,2.91,2.91,0,0,0-2.46-1.23,6.77,6.77,0,0,0-3,.91,13.4,13.4,0,0,0-3.5,2.86l1.8-7.69a23.78,23.78,0,0,1,1.38-4.67,2,2,0,0,1,1.77-1.19,7.8,7.8,0,0,1,1.41.16,15.86,15.86,0,0,0,2.5.33,2.28,2.28,0,0,0,1.49-.44,1.43,1.43,0,0,0-.06-2.25A3.12,3.12,0,0,0,873.36,986.6Zm-6.69,16.14a4.21,4.21,0,0,1,2.55-1.29,1.57,1.57,0,0,1,1.38.74,5.06,5.06,0,0,1,.72,2.83,17.16,17.16,0,0,1-1.9,7.66c-1.27,2.56-2.72,3.85-4.34,3.85a2.38,2.38,0,0,1-1.77-.8,2.81,2.81,0,0,1-.75-2,17.1,17.1,0,0,1,1.31-6.43A12,12,0,0,1,866.67,1002.74Z"/><path class="cls-3" d="M902.14,987a2,2,0,0,0-1.41-.46,9.71,9.71,0,0,0-3.58.77,10.68,10.68,0,0,0-3.41,2.2,11.72,11.72,0,0,0-2.43,3.38,34.14,34.14,0,0,0-2,6.23,10.24,10.24,0,0,0-1.44-.15,8.23,8.23,0,0,0-4.79,1.94,17.38,17.38,0,0,0-4.76,6,15.84,15.84,0,0,0-2.14,7.17,4.87,4.87,0,0,0,.79,3,2.39,2.39,0,0,0,2,1,6.4,6.4,0,0,0,3.16-1,20.71,20.71,0,0,0,4.38-3.84l-.76,2.68a5.25,5.25,0,0,0-.24,1.23.89.89,0,0,0,.33.67,1.23,1.23,0,0,0,.85.29,7,7,0,0,0,3.11-1.11,35.33,35.33,0,0,0,4.37-3.29l-.62-.84a32.46,32.46,0,0,1-2.89,2.09,2,2,0,0,1-.92.28c-.43,0-.64-.28-.64-.83a17.31,17.31,0,0,1,.55-3.12l3.1-13.24q1.24-5.29,1.59-6.29a4.57,4.57,0,0,1,1.11-2,2.07,2.07,0,0,1,1.35-.48,18.63,18.63,0,0,1,2.05.22,16.09,16.09,0,0,0,2,.22,1.94,1.94,0,0,0,1.32-.42,1.43,1.43,0,0,0,.48-1.11A1.46,1.46,0,0,0,902.14,987Zm-14.27,18.94a29.4,29.4,0,0,1-1.6,5.38,9.19,9.19,0,0,1-2.68,3,3.87,3.87,0,0,1-2.1.81,1.76,1.76,0,0,1-1.37-.72,2.68,2.68,0,0,1-.61-1.83,16.15,16.15,0,0,1,1.31-5.77,11.12,11.12,0,0,1,2.71-4.47,4.47,4.47,0,0,1,2.87-1.15,13.23,13.23,0,0,1,2.47.39Z"/><path d="M236.18,918.84q0,10.32-6.69,15.76T211,940.05h-1.41a1.52,1.52,0,0,0-1.52,1.52v18.16a1.52,1.52,0,0,1-1.52,1.52H194.7a1.52,1.52,0,0,1-1.52-1.52V900.42a1.52,1.52,0,0,1,1.52-1.52h17.55Q236.18,898.9,236.18,918.84Zm-28.11,7.69h2c4.11,0,7-.59,8.52-1.75s2.36-3,2.36-5.55-.67-4.13-2-5.2-3.78-1.61-7.3-1.61h-2a1.53,1.53,0,0,0-1.52,1.52Z"/><path d="M255.54,913.91a1.51,1.51,0,0,0,2.35,1,20.38,20.38,0,0,1,3.38-1.86,15.08,15.08,0,0,1,6-1.22,18.29,18.29,0,0,1,6.43,1.22,1.54,1.54,0,0,1,1,1.57L273.62,926a1.52,1.52,0,0,1-2.06,1.27,15.28,15.28,0,0,0-4.65-1.2,8.68,8.68,0,0,0-6.76,2.63,10.44,10.44,0,0,0-2.38,7.29v23.77a1.52,1.52,0,0,1-1.52,1.52H244.41a1.52,1.52,0,0,1-1.52-1.52V914.14a1.52,1.52,0,0,1,1.52-1.52H254a1.52,1.52,0,0,1,1.5,1.29Z"/><path d="M280.73,901.53q0-8,8.12-8,7.92,0,7.93,8t-7.93,8Q280.72,909.51,280.73,901.53Zm13.94,59.72H282.83a1.52,1.52,0,0,1-1.52-1.52V914.14a1.52,1.52,0,0,1,1.52-1.52h11.84a1.52,1.52,0,0,1,1.52,1.52v45.59A1.52,1.52,0,0,1,294.67,961.25Z"/><path d="M326.25,939l3-9.14,5.68-16.2a1.52,1.52,0,0,1,1.43-1h12.78a1.52,1.52,0,0,1,1.43,2L331.7,965.05q-6,15.16-19.26,15.17c-.59,0-1.11,0-1.56-.05l-1.65-.14c-.65-.07-1.4-.16-2.24-.29l-2-.3a1.54,1.54,0,0,1-1.31-1.51V967.46a1.52,1.52,0,0,1,2-1.45,20.44,20.44,0,0,0,5.91,1.08,4.87,4.87,0,0,0,3.36-1.26,12.9,12.9,0,0,0,2.77-4.58l.94-2.35a1.47,1.47,0,0,0,0-1.13L301.49,914.7a1.52,1.52,0,0,1,1.42-2.08h12.92a1.54,1.54,0,0,1,1.44,1l8.88,25.25Z"/><path d="M402.61,936.84a33.11,33.11,0,0,1-1.56,10.51,22,22,0,0,1-4.52,7.92,19.78,19.78,0,0,1-7.25,5,25.15,25.15,0,0,1-9.63,1.75,24,24,0,0,1-9.48-1.8,20.18,20.18,0,0,1-7.2-5.1,23.64,23.64,0,0,1-4.62-7.93,30.39,30.39,0,0,1-1.66-10.36q0-11.77,6-18.39t17.16-6.61a24,24,0,0,1,9.49,1.8,19.64,19.64,0,0,1,7.15,5.11,23.57,23.57,0,0,1,4.52,7.88A30.63,30.63,0,0,1,402.61,936.84Zm-30.84,0q0,11.86,8,11.87,7.77,0,7.78-11.87,0-11.67-7.88-11.67c-2.72,0-4.72.92-6,2.77S371.77,932.75,371.77,936.84Z"/><path d="M453.61,961.25H441.77a1.52,1.52,0,0,1-1.52-1.52V900.42a1.52,1.52,0,0,1,1.52-1.52h34.41a1.52,1.52,0,0,1,1.52,1.52V911a1.52,1.52,0,0,1-1.52,1.52H456.65a1.52,1.52,0,0,0-1.52,1.52v8.73a1.52,1.52,0,0,0,1.52,1.52h18a1.52,1.52,0,0,1,1.52,1.52v10.77a1.52,1.52,0,0,1-1.52,1.52h-18a1.52,1.52,0,0,0-1.52,1.52v20.11A1.52,1.52,0,0,1,453.61,961.25Z"/><path d="M508.43,929.29a1.54,1.54,0,0,0,1.41-2,3.92,3.92,0,0,0-.82-1.55c-.65-.7-1.88-1.05-3.7-1.05a17.82,17.82,0,0,0-2.72.2,16.12,16.12,0,0,0-2.72.68c-1,.32-2.1.76-3.36,1.31-.93.4-2,.89-3.23,1.45a1.53,1.53,0,0,1-2-.76l-4-9a1.53,1.53,0,0,1,.7-2,44.84,44.84,0,0,1,9.26-3.62,36.39,36.39,0,0,1,8.51-1.07q9.15,0,14.2,4.28T525,929.54v30.19a1.52,1.52,0,0,1-1.52,1.52h-8.92a1.51,1.51,0,0,1-1.45-1.09l0-.13a1.52,1.52,0,0,0-2.3-.83,15.93,15.93,0,0,1-4,1.86,25.22,25.22,0,0,1-7.49,1q-7.59,0-11.82-4.19T483.24,946q0-7.89,5.6-12.19t16.77-4.49Zm-6.32,19.9q8,0,8-7.58v-.69l-2.34.1a27.34,27.34,0,0,0-4.62.49,9.71,9.71,0,0,0-2.86,1,3.25,3.25,0,0,0-1.46,1.56,5.3,5.3,0,0,0-.39,2.09,3,3,0,0,0,.77,2.28A4.34,4.34,0,0,0,502.11,949.19Z"/><path d="M567.76,945.88a1.41,1.41,0,0,1,0,.2q0,7.9-5.5,11.92t-14.93,4a36.12,36.12,0,0,1-15.67-3.27,1.53,1.53,0,0,1-.86-1.39V946.69a1.52,1.52,0,0,1,2.08-1.41q9.81,3.91,14.84,3.91,5.35,0,5.35-2.14a1.38,1.38,0,0,0-.29-.73,4.45,4.45,0,0,0-1.12-1,18.91,18.91,0,0,0-2.38-1.36,32.11,32.11,0,0,0-4.19-1.65,48.38,48.38,0,0,1-6.61-3.17,18.75,18.75,0,0,1-4.42-3.45,11.35,11.35,0,0,1-2.48-4.13,16.12,16.12,0,0,1-.78-5.21q0-7.1,5.2-10.79t14.06-3.7q7.5,0,16.53,4a1.53,1.53,0,0,1,.77,2l-4,9.25a1.53,1.53,0,0,1-1.95.81q-8.34-3.16-11.76-3.16a10.51,10.51,0,0,0-3.31.34q-.87.35-.87,1a1.24,1.24,0,0,0,.14.58,2.63,2.63,0,0,0,.93.78,20.57,20.57,0,0,0,2.38,1.22q1.6.72,4.52,1.8a41.15,41.15,0,0,1,6.76,3,17.53,17.53,0,0,1,4.28,3.36,11.31,11.31,0,0,1,2.34,4A21.16,21.16,0,0,1,567.76,945.88Z"/><path d="M589.66,911.93a1.52,1.52,0,0,0,2.17,1.36,15.52,15.52,0,0,1,2.41-.82,22.2,22.2,0,0,1,5.37-.63q18.35,0,18.35,18.68v29.21a1.52,1.52,0,0,1-1.52,1.52H604.6a1.52,1.52,0,0,1-1.52-1.52V932.07q0-3.89-1.18-5.39c-.78-1-2.15-1.51-4.11-1.51a11.64,11.64,0,0,0-3.77.53,5.09,5.09,0,0,0-2.5,1.9,9,9,0,0,0-1.42,3.65,30.81,30.81,0,0,0-.44,5.78v22.7a1.52,1.52,0,0,1-1.52,1.52H576.29a1.52,1.52,0,0,1-1.52-1.52V896.82a1.52,1.52,0,0,1,1.52-1.52h11.85a1.52,1.52,0,0,1,1.52,1.52Z"/><path d="M625,901.53q0-8,8.13-8,7.92,0,7.92,8t-7.92,8Q625,909.51,625,901.53Zm13.95,59.72H627.07a1.52,1.52,0,0,1-1.52-1.52V914.14a1.52,1.52,0,0,1,1.52-1.52h11.84a1.52,1.52,0,0,1,1.52,1.52v45.59A1.52,1.52,0,0,1,638.91,961.25Z"/><path d="M692.57,936.84A33.11,33.11,0,0,1,691,947.35a22,22,0,0,1-4.52,7.92,19.78,19.78,0,0,1-7.25,5,25.15,25.15,0,0,1-9.63,1.75,24,24,0,0,1-9.48-1.8,20,20,0,0,1-7.2-5.1,23.64,23.64,0,0,1-4.62-7.93,30.39,30.39,0,0,1-1.66-10.36q0-11.77,6-18.39t17.16-6.61a24,24,0,0,1,9.49,1.8,19.64,19.64,0,0,1,7.15,5.11,23.57,23.57,0,0,1,4.52,7.88A30.63,30.63,0,0,1,692.57,936.84Zm-30.84,0q0,11.86,8,11.87,7.77,0,7.78-11.87,0-11.67-7.88-11.67c-2.72,0-4.72.92-6,2.77S661.73,932.75,661.73,936.84Z"/><path d="M712.12,915.44a28.48,28.48,0,0,1,5.57-2.63,19.57,19.57,0,0,1,6.26-1q18.22,0,18.22,18.68v29.21a1.52,1.52,0,0,1-1.52,1.52H728.81a1.52,1.52,0,0,1-1.52-1.52V932.07q0-3.89-1.17-5.39c-.77-1-2.14-1.51-4.08-1.51a11.55,11.55,0,0,0-3.75.53,5.13,5.13,0,0,0-2.48,1.9,9.16,9.16,0,0,0-1.41,3.65A31.79,31.79,0,0,0,714,937v22.7a1.52,1.52,0,0,1-1.52,1.52H700.6a1.52,1.52,0,0,1-1.52-1.52V914.14a1.52,1.52,0,0,1,1.52-1.52h9.64a1.53,1.53,0,0,1,1.48,1.16Z"/><path class="cls-4" d="M822.84,926.87a1.49,1.49,0,0,0,.24,2.12q5.17,4,5.18,13.1a19.48,19.48,0,0,1-1.61,8.12,16.09,16.09,0,0,1-4.62,6,21.45,21.45,0,0,1-7.25,3.74,31.76,31.76,0,0,1-9.48,1.31H783.77a1.52,1.52,0,0,1-1.52-1.52V900.42a1.52,1.52,0,0,1,1.52-1.52H801.7q12.64,0,18.78,4t6.12,13a17.46,17.46,0,0,1-1.26,6.8A16.44,16.44,0,0,1,822.84,926.87Zm-25.71-6.14a1.52,1.52,0,0,0,1.52,1.52h4.51q4.77,0,6.37-1.12c1.07-.74,1.61-2.09,1.61-4a4,4,0,0,0-1.75-3.5q-1.75-1.17-7.2-1.17h-3.54a1.53,1.53,0,0,0-1.52,1.52Zm0,16.36v9a1.52,1.52,0,0,0,1.52,1.52H804q4.76,0,6.71-1.41t1.94-4.82q0-5.83-9.14-5.83h-4.9A1.52,1.52,0,0,0,797.13,937.09Z"/><path class="cls-4" d="M886.82,929.54q0,15.68-8.18,23.69t-24.7,8H837a1.52,1.52,0,0,1-1.52-1.52V900.42A1.52,1.52,0,0,1,837,898.9h18.61A39,39,0,0,1,868.67,901a26.37,26.37,0,0,1,9.83,6,26,26,0,0,1,6.18,9.63A36.84,36.84,0,0,1,886.82,929.54Zm-15.57.3q0-17.42-15.85-17.42h-3.54a1.53,1.53,0,0,0-1.52,1.52v32.18a1.52,1.52,0,0,0,1.52,1.52h2.08Q871.25,947.64,871.25,929.84Z"/></svg>